{
    "asset" : {
        "generator" : "Khronos glTF Blender I/O v3.2.43",
        "version" : "2.0"
    },
    "scene" : 0,
    "scenes" : [
        {
            "name" : "Scene",
            "nodes" : [
                0,
                1,
                2,
                3
            ]
        }
    ],
    "nodes" : [
        {
            "mesh" : 0,
            "name" : "Cube",
            "scale" : [
                3,
                3,
                3
            ],
            "translation" : [
                0,
                1,
                0
            ]
        },
        {
            "mesh" : 1,
            "name" : "Cylinder",
            "translation" : [
                0.15757028758525848,
                -0.9666730761528015,
                -0.27511224150657654
            ]
        },
        {
            "mesh" : 2,
            "name" : "Cube.001",
            "scale" : [
                0.31952476501464844,
                0.31952476501464844,
                0.31952476501464844
            ],
            "translation" : [
                -0.44119516015052795,
                2.502617835998535,
                2.696479082107544
            ]
        },
        {
            "mesh" : 3,
            "name" : "Cube.002",
            "scale" : [
                -1.567307472229004,
                -0.14104585349559784,
                -1.567307472229004
            ],
            "translation" : [
                -0.015893256291747093,
                0.1876867115497589,
                -0.3723280429840088
            ]
        }
    ],
    "materials" : [
        {
            "doubleSided" : true,
            "emissiveFactor" : [
                1,
                1,
                1
            ],
            "name" : "Vtxcolor",
            "pbrMetallicRoughness" : {
                "baseColorFactor" : [
                    0,
                    0,
                    0,
                    1
                ]
            }
        }
    ],
    "meshes" : [
        {
            "name" : "Cube",
            "primitives" : [
                {
                    "attributes" : {
                        "POSITION" : 0,
                        "NORMAL" : 1,
                        "TEXCOORD_0" : 2,
                        "COLOR_0" : 3
                    },
                    "indices" : 4,
                    "material" : 0
                }
            ]
        },
        {
            "name" : "Cylinder",
            "primitives" : [
                {
                    "attributes" : {
                        "POSITION" : 5,
                        "NORMAL" : 6,
                        "TEXCOORD_0" : 7,
                        "COLOR_0" : 8
                    },
                    "indices" : 9,
                    "material" : 0
                }
            ]
        },
        {
            "name" : "Cube.001",
            "primitives" : [
                {
                    "attributes" : {
                        "POSITION" : 10,
                        "NORMAL" : 11,
                        "TEXCOORD_0" : 12,
                        "COLOR_0" : 13
                    },
                    "indices" : 14,
                    "material" : 0
                }
            ]
        },
        {
            "name" : "Cube.002",
            "primitives" : [
                {
                    "attributes" : {
                        "POSITION" : 15,
                        "NORMAL" : 16,
                        "TEXCOORD_0" : 17,
                        "COLOR_0" : 18
                    },
                    "indices" : 19,
                    "material" : 0
                }
            ]
        }
    ],
    "accessors" : [
        {
            "bufferView" : 0,
            "componentType" : 5126,
            "count" : 371,
            "max" : [
                1,
                1,
                1
            ],
            "min" : [
                -1,
                -1,
                -1
            ],
            "type" : "VEC3"
        },
        {
            "bufferView" : 1,
            "componentType" : 5126,
            "count" : 371,
            "type" : "VEC3"
        },
        {
            "bufferView" : 2,
            "componentType" : 5126,
            "count" : 371,
            "type" : "VEC2"
        },
        {
            "bufferView" : 3,
            "componentType" : 5123,
            "count" : 371,
            "normalized" : true,
            "type" : "VEC4"
        },
        {
            "bufferView" : 4,
            "componentType" : 5123,
            "count" : 1080,
            "type" : "SCALAR"
        },
        {
            "bufferView" : 5,
            "componentType" : 5126,
            "count" : 80,
            "max" : [
                0.866025447845459,
                1,
                1
            ],
            "min" : [
                -0.866025447845459,
                -1,
                -1
            ],
            "type" : "VEC3"
        },
        {
            "bufferView" : 6,
            "componentType" : 5126,
            "count" : 80,
            "type" : "VEC3"
        },
        {
            "bufferView" : 7,
            "componentType" : 5126,
            "count" : 80,
            "type" : "VEC2"
        },
        {
            "bufferView" : 8,
            "componentType" : 5123,
            "count" : 80,
            "normalized" : true,
            "type" : "VEC4"
        },
        {
            "bufferView" : 9,
            "componentType" : 5123,
            "count" : 132,
            "type" : "SCALAR"
        },
        {
            "bufferView" : 10,
            "componentType" : 5126,
            "count" : 24,
            "max" : [
                1,
                1,
                1
            ],
            "min" : [
                -1,
                -1,
                -1
            ],
            "type" : "VEC3"
        },
        {
            "bufferView" : 11,
            "componentType" : 5126,
            "count" : 24,
            "type" : "VEC3"
        },
        {
            "bufferView" : 12,
            "componentType" : 5126,
            "count" : 24,
            "type" : "VEC2"
        },
        {
            "bufferView" : 13,
            "componentType" : 5123,
            "count" : 24,
            "normalized" : true,
            "type" : "VEC4"
        },
        {
            "bufferView" : 14,
            "componentType" : 5123,
            "count" : 36,
            "type" : "SCALAR"
        },
        {
            "bufferView" : 15,
            "componentType" : 5126,
            "count" : 206,
            "max" : [
                1,
                1,
                1
            ],
            "min" : [
                -1,
                -1,
                -1
            ],
            "type" : "VEC3"
        },
        {
            "bufferView" : 16,
            "componentType" : 5126,
            "count" : 206,
            "type" : "VEC3"
        },
        {
            "bufferView" : 17,
            "componentType" : 5126,
            "count" : 206,
            "type" : "VEC2"
        },
        {
            "bufferView" : 18,
            "componentType" : 5123,
            "count" : 206,
            "normalized" : true,
            "type" : "VEC4"
        },
        {
            "bufferView" : 19,
            "componentType" : 5123,
            "count" : 636,
            "type" : "SCALAR"
        }
    ],
    "bufferViews" : [
        {
            "buffer" : 0,
            "byteLength" : 4452,
            "byteOffset" : 0
        },
        {
            "buffer" : 0,
            "byteLength" : 4452,
            "byteOffset" : 4452
        },
        {
            "buffer" : 0,
            "byteLength" : 2968,
            "byteOffset" : 8904
        },
        {
            "buffer" : 0,
            "byteLength" : 2968,
            "byteOffset" : 11872
        },
        {
            "buffer" : 0,
            "byteLength" : 2160,
            "byteOffset" : 14840
        },
        {
            "buffer" : 0,
            "byteLength" : 960,
            "byteOffset" : 17000
        },
        {
            "buffer" : 0,
            "byteLength" : 960,
            "byteOffset" : 17960
        },
        {
            "buffer" : 0,
            "byteLength" : 640,
            "byteOffset" : 18920
        },
        {
            "buffer" : 0,
            "byteLength" : 640,
            "byteOffset" : 19560
        },
        {
            "buffer" : 0,
            "byteLength" : 264,
            "byteOffset" : 20200
        },
        {
            "buffer" : 0,
            "byteLength" : 288,
            "byteOffset" : 20464
        },
        {
            "buffer" : 0,
            "byteLength" : 288,
            "byteOffset" : 20752
        },
        {
            "buffer" : 0,
            "byteLength" : 192,
            "byteOffset" : 21040
        },
        {
            "buffer" : 0,
            "byteLength" : 192,
            "byteOffset" : 21232
        },
        {
            "buffer" : 0,
            "byteLength" : 72,
            "byteOffset" : 21424
        },
        {
            "buffer" : 0,
            "byteLength" : 2472,
            "byteOffset" : 21496
        },
        {
            "buffer" : 0,
            "byteLength" : 2472,
            "byteOffset" : 23968
        },
        {
            "buffer" : 0,
            "byteLength" : 1648,
            "byteOffset" : 26440
        },
        {
            "buffer" : 0,
            "byteLength" : 1648,
            "byteOffset" : 28088
        },
        {
            "buffer" : 0,
            "byteLength" : 1272,
            "byteOffset" : 29736
        }
    ],
    "buffers" : [
        {
            "byteLength" : 31008,
            "uri" : "data:application/octet-stream;base64,"
        }
    ]
}
